<?xml version="1.0" encoding="UTF-8" standalone="no"?>
<!DOCTYPE svg PUBLIC "-//W3C//DTD SVG 1.1//EN" "http://www.w3.org/Graphics/SVG/1.1/DTD/svg11.dtd">
<svg width="100%" height="100%" viewBox="0 0 100 85" version="1.1" xmlns="http://www.w3.org/2000/svg" xmlns:xlink="http://www.w3.org/1999/xlink" xml:space="preserve" xmlns:serif="http://www.serif.com/" style="fill-rule:evenodd;clip-rule:evenodd;stroke-linejoin:round;stroke-miterlimit:2;">
    <g transform="matrix(1.10592,0,0,1.14379,-5.29596,-12.222)">
        <path d="M41.268,15.422C43.19,12.468 46.475,10.686 50,10.686C53.525,10.686 56.81,12.468 58.732,15.422C68.227,30.016 83.397,53.333 93.526,68.901C95.61,72.104 95.773,76.19 93.951,79.549C92.129,82.908 88.614,85 84.793,85C65.16,85 34.84,85 15.207,85C11.386,85 7.871,82.908 6.049,79.549C4.227,76.19 4.39,72.104 6.474,68.901C16.603,53.333 31.773,30.016 41.268,15.422ZM50.033,74.862C48.697,74.862 47.531,74.43 46.535,73.565C45.539,72.7 45.041,71.49 45.041,69.936C45.041,68.578 45.517,67.423 46.469,66.471C47.422,65.518 48.588,65.042 49.967,65.042C51.347,65.042 52.523,65.518 53.498,66.471C54.472,67.423 54.959,68.578 54.959,69.936C54.959,71.468 54.467,72.673 53.481,73.549C52.496,74.424 51.347,74.862 50.033,74.862ZM46.387,53.251L45.336,37.52C45.139,34.454 45.041,32.254 45.041,30.918C45.041,29.101 45.517,27.683 46.469,26.665C47.422,25.647 48.675,25.138 50.23,25.138C52.113,25.138 53.372,25.789 54.007,27.092C54.642,28.395 54.959,30.272 54.959,32.725C54.959,34.17 54.883,35.637 54.729,37.125L53.317,53.317C53.164,55.244 52.835,56.722 52.332,57.751C51.828,58.78 50.996,59.295 49.836,59.295C48.653,59.295 47.832,58.796 47.373,57.8C46.913,56.804 46.584,55.288 46.387,53.251Z" style="fill:rgb(255,236,37);"/>
    </g>
</svg>
